<svg width="16" height="17" viewBox="0 0 16 17" fill="none" xmlns="http://www.w3.org/2000/svg">
<path d="M7.38784 2.58514C7.61944 2.04844 8.38045 2.04844 8.61205 2.58514L10.0654 5.95307C10.1635 6.18032 10.3794 6.33454 10.6262 6.35361L14.3533 6.64161C14.9512 6.68781 15.1888 7.43852 14.7263 7.82038L11.9234 10.1346C11.7257 10.2978 11.6391 10.5599 11.7007 10.8088L12.5633 14.2944C12.7052 14.8676 12.0869 15.3286 11.578 15.029L8.33816 13.1217C8.12943 12.9988 7.87047 12.9988 7.66173 13.1217L4.42191 15.029C3.91304 15.3286 3.29469 14.8676 3.43655 14.2944L4.29918 10.8088C4.36077 10.5599 4.27419 10.2978 4.07648 10.1346L1.27356 7.82038C0.811051 7.43852 1.04865 6.68781 1.64665 6.64161L5.37375 6.35361C5.62052 6.33454 5.83642 6.18032 5.93449 5.95307L7.38784 2.58514Z" fill="#04B90B"/>
</svg>
